PathFileType	4	(X/Y/Z)	C:\Users\adpatrick\OneDrive - nih.no\Desktop\WebApp1080sync\WebAppv0.1\fp22_m505_left 2_Sports2D\fp22_m505_left 2_Sports2D_px_person00.trc
DataRate	CameraRate	NumFrames	NumMarkers	Units	OrigDataRate	OrigDataStartFrame	OrigNumFrames
60	60	4	22	m	60	325	869
Frame#	Time	Hip			RHip			RKnee			RAnkle			RBigToe			RSmallToe			RHeel			LHip			LKnee			LAnkle			LBigToe			LSmallToe			LHeel			Neck			Head			Nose			RShoulder			RElbow			RWrist			LShoulder			LElbow			LWrist		
		X1	Y1	Z1	X2	Y2	Z2	X3	Y3	Z3	X4	Y4	Z4	X5	Y5	Z5	X6	Y6	Z6	X7	Y7	Z7	X8	Y8	Z8	X9	Y9	Z9	X10	Y10	Z10	X11	Y11	Z11	X12	Y12	Z12	X13	Y13	Z13	X14	Y14	Z14	X15	Y15	Z15	X16	Y16	Z16	X17	Y17	Z17	X18	Y18	Z18	X19	Y19	Z19	X20	Y20	Z20	X21	Y21	Z21	X22	Y22	Z22
325	5.416666666666667	169.9379207780618	546.5043865587294	0.0	139.6784198974519	544.7300183678263	0.0	118.32899203342232	656.3116039452856	0.0	87.5236971849275	767.3272542955406	0.0	116.33541047506151	794.4897494275924	0.0	97.18380471623212	797.7412478427686	0.0	76.04193164610808	784.6578167250352	0.0	192.59933813311451	544.4066692112605	0.0	231.77858193247408	644.5837534226756	0.0	232.2729632544716	758.2751974691598	0.0	271.23216938973	784.1919891798426	0.0	274.00470149260354	778.3100429384749	0.0	222.54630694597927	775.3974092057776	0.0	208.91167675194535	401.51543905933204	0.0	241.38671834555535	334.48405417265917	0.0	247.49390503160487	376.72270156662	0.0	152.21080557995646	420.88918261066016	0.0	125.20682353814092	501.2588875727245	0.0	143.57166396941088	570.4031860310829	0.0	241.89882978448549	432.4270105002412	0.0	245.04632359119628	505.2830730695735	0.0	262.373418527784	569.2022842180403	0.0
326	5.433333333333334	169.93974727265518	546.651671780128	0.0	139.787643762875	544.823734511614	0.0	118.25861061844456	656.1900862495993	0.0	87.50462908631809	767.3145696142136	0.0	116.45783134237304	794.5510838954206	0.0	97.30686876537678	797.713985778819	0.0	76.02506634097375	784.7064669795568	0.0	192.7245902019291	544.616179246174	0.0	231.93428157781267	644.5209383712851	0.0	232.31881093256388	758.4193260819228	0.0	271.36431409623265	784.2739846645192	0.0	274.1811507660458	778.293981369069	0.0	222.64142702639293	775.3345530074154	0.0	209.07101896532345	401.4875925073579	0.0	241.68237474692316	334.5895648276766	0.0	247.78792202281704	376.8152682486004	0.0	152.3746861556047	420.82645404037237	0.0	125.1632922075358	501.2892115531381	0.0	143.72560753424926	570.22992992681	0.0	242.12797904093534	432.68170816645176	0.0	245.21009034316552	505.4242031329077	0.0	262.64526355276564	569.2202888238577	0.0
327	5.45	170.01859677145933	546.914643590208	0.0	139.94283978323986	545.1218960072199	0.0	118.14567619118286	656.0495535278275	0.0	87.48896432948773	767.2570002664372	0.0	116.5288315967161	794.5288139709255	0.0	97.4153526711728	797.7163443842234	0.0	76.00811752224176	784.7302515944648	0.0	192.9129407908732	545.027833736711	0.0	232.03624105658818	644.5277345086004	0.0	232.37904383080644	758.4742343876713	0.0	271.51496008315286	784.2559665026656	0.0	274.3659442100424	778.2896420846183	0.0	222.71873633549905	775.2813507920449	0.0	209.29324388150783	401.50633885972144	0.0	242.06180784670303	334.6064200911303	0.0	248.17793501895196	377.01071624027765	0.0	152.63298529422804	420.7764881777469	0.0	125.13198578097796	501.2157236492361	0.0	143.82791980469335	570.0844596906416	0.0	242.36029271806495	432.876925202301	0.0	245.35970240291036	505.48923301466164	0.0	262.88512630331917	569.0926055561918	0.0
328	5.466666666666667	170.15028250726218	547.2105069451009	0.0	140.1464208058311	545.5090722750153	0.0	118.04081893833524	655.933461775621	0.0	87.48195479003667	767.184534613086	0.0	116.55812494810297	794.4450180740175	0.0	97.46998633309761	797.7316420189319	0.0	76.00287289539516	784.7020443681675	0.0	193.11515820983496	545.5201229466719	0.0	232.11020788297606	644.632119290608	0.0	232.425232434635	758.47138266749	0.0	271.6094648167244	784.2079784951842	0.0	274.4804403005248	778.327965027116	0.0	222.7905628972877	775.2604698946833	0.0	209.5367728442904	401.5718542285587	0.0	242.51256814990586	334.6097854644094	0.0	248.61573314469953	377.34072333602984	0.0	152.93873878333872	420.74881590116865	0.0	125.13395363021041	501.0781122588447	0.0	143.89544557230488	569.9712090159452	0.0	242.5848961431106	432.9789542962867	0.0	245.51592894337335	505.42890381756564	0.0	263.0908724655206	568.8598818268795	0.0
